<?xml version="1.0" encoding="UTF-8"?>
<svg xmlns="http://www.w3.org/2000/svg" viewBox="0 0 360 360" width="360" height="360" shape-rendering="crispEdges">
<rect width="360" height="360" fill="#ffffff"/>
<g fill="#000000">
<rect x="32" y="32" width="8" height="8" />
<rect x="40" y="32" width="8" height="8" />
<rect x="48" y="32" width="8" height="8" />
<rect x="56" y="32" width="8" height="8" />
<rect x="64" y="32" width="8" height="8" />
<rect x="72" y="32" width="8" height="8" />
<rect x="80" y="32" width="8" height="8" />
<rect x="96" y="32" width="8" height="8" />
<rect x="112" y="32" width="8" height="8" />
<rect x="120" y="32" width="8" height="8" />
<rect x="144" y="32" width="8" height="8" />
<rect x="152" y="32" width="8" height="8" />
<rect x="160" y="32" width="8" height="8" />
<rect x="168" y="32" width="8" height="8" />
<rect x="176" y="32" width="8" height="8" />
<rect x="184" y="32" width="8" height="8" />
<rect x="216" y="32" width="8" height="8" />
<rect x="224" y="32" width="8" height="8" />
<rect x="256" y="32" width="8" height="8" />
<rect x="272" y="32" width="8" height="8" />
<rect x="280" y="32" width="8" height="8" />
<rect x="288" y="32" width="8" height="8" />
<rect x="296" y="32" width="8" height="8" />
<rect x="304" y="32" width="8" height="8" />
<rect x="312" y="32" width="8" height="8" />
<rect x="320" y="32" width="8" height="8" />
<rect x="32" y="40" width="8" height="8" />
<rect x="80" y="40" width="8" height="8" />
<rect x="96" y="40" width="8" height="8" />
<rect x="128" y="40" width="8" height="8" />
<rect x="136" y="40" width="8" height="8" />
<rect x="152" y="40" width="8" height="8" />
<rect x="160" y="40" width="8" height="8" />
<rect x="168" y="40" width="8" height="8" />
<rect x="192" y="40" width="8" height="8" />
<rect x="200" y="40" width="8" height="8" />
<rect x="208" y="40" width="8" height="8" />
<rect x="256" y="40" width="8" height="8" />
<rect x="272" y="40" width="8" height="8" />
<rect x="320" y="40" width="8" height="8" />
<rect x="32" y="48" width="8" height="8" />
<rect x="48" y="48" width="8" height="8" />
<rect x="56" y="48" width="8" height="8" />
<rect x="64" y="48" width="8" height="8" />
<rect x="80" y="48" width="8" height="8" />
<rect x="96" y="48" width="8" height="8" />
<rect x="112" y="48" width="8" height="8" />
<rect x="144" y="48" width="8" height="8" />
<rect x="152" y="48" width="8" height="8" />
<rect x="192" y="48" width="8" height="8" />
<rect x="200" y="48" width="8" height="8" />
<rect x="224" y="48" width="8" height="8" />
<rect x="232" y="48" width="8" height="8" />
<rect x="240" y="48" width="8" height="8" />
<rect x="272" y="48" width="8" height="8" />
<rect x="288" y="48" width="8" height="8" />
<rect x="296" y="48" width="8" height="8" />
<rect x="304" y="48" width="8" height="8" />
<rect x="320" y="48" width="8" height="8" />
<rect x="32" y="56" width="8" height="8" />
<rect x="48" y="56" width="8" height="8" />
<rect x="56" y="56" width="8" height="8" />
<rect x="64" y="56" width="8" height="8" />
<rect x="80" y="56" width="8" height="8" />
<rect x="104" y="56" width="8" height="8" />
<rect x="112" y="56" width="8" height="8" />
<rect x="128" y="56" width="8" height="8" />
<rect x="136" y="56" width="8" height="8" />
<rect x="168" y="56" width="8" height="8" />
<rect x="184" y="56" width="8" height="8" />
<rect x="200" y="56" width="8" height="8" />
<rect x="224" y="56" width="8" height="8" />
<rect x="232" y="56" width="8" height="8" />
<rect x="248" y="56" width="8" height="8" />
<rect x="272" y="56" width="8" height="8" />
<rect x="288" y="56" width="8" height="8" />
<rect x="296" y="56" width="8" height="8" />
<rect x="304" y="56" width="8" height="8" />
<rect x="320" y="56" width="8" height="8" />
<rect x="32" y="64" width="8" height="8" />
<rect x="48" y="64" width="8" height="8" />
<rect x="56" y="64" width="8" height="8" />
<rect x="64" y="64" width="8" height="8" />
<rect x="80" y="64" width="8" height="8" />
<rect x="96" y="64" width="8" height="8" />
<rect x="152" y="64" width="8" height="8" />
<rect x="168" y="64" width="8" height="8" />
<rect x="176" y="64" width="8" height="8" />
<rect x="184" y="64" width="8" height="8" />
<rect x="208" y="64" width="8" height="8" />
<rect x="240" y="64" width="8" height="8" />
<rect x="248" y="64" width="8" height="8" />
<rect x="256" y="64" width="8" height="8" />
<rect x="272" y="64" width="8" height="8" />
<rect x="288" y="64" width="8" height="8" />
<rect x="296" y="64" width="8" height="8" />
<rect x="304" y="64" width="8" height="8" />
<rect x="320" y="64" width="8" height="8" />
<rect x="32" y="72" width="8" height="8" />
<rect x="80" y="72" width="8" height="8" />
<rect x="112" y="72" width="8" height="8" />
<rect x="136" y="72" width="8" height="8" />
<rect x="168" y="72" width="8" height="8" />
<rect x="176" y="72" width="8" height="8" />
<rect x="192" y="72" width="8" height="8" />
<rect x="200" y="72" width="8" height="8" />
<rect x="216" y="72" width="8" height="8" />
<rect x="224" y="72" width="8" height="8" />
<rect x="232" y="72" width="8" height="8" />
<rect x="272" y="72" width="8" height="8" />
<rect x="320" y="72" width="8" height="8" />
<rect x="32" y="80" width="8" height="8" />
<rect x="40" y="80" width="8" height="8" />
<rect x="48" y="80" width="8" height="8" />
<rect x="56" y="80" width="8" height="8" />
<rect x="64" y="80" width="8" height="8" />
<rect x="72" y="80" width="8" height="8" />
<rect x="80" y="80" width="8" height="8" />
<rect x="96" y="80" width="8" height="8" />
<rect x="112" y="80" width="8" height="8" />
<rect x="128" y="80" width="8" height="8" />
<rect x="144" y="80" width="8" height="8" />
<rect x="160" y="80" width="8" height="8" />
<rect x="176" y="80" width="8" height="8" />
<rect x="192" y="80" width="8" height="8" />
<rect x="208" y="80" width="8" height="8" />
<rect x="224" y="80" width="8" height="8" />
<rect x="240" y="80" width="8" height="8" />
<rect x="256" y="80" width="8" height="8" />
<rect x="272" y="80" width="8" height="8" />
<rect x="280" y="80" width="8" height="8" />
<rect x="288" y="80" width="8" height="8" />
<rect x="296" y="80" width="8" height="8" />
<rect x="304" y="80" width="8" height="8" />
<rect x="312" y="80" width="8" height="8" />
<rect x="320" y="80" width="8" height="8" />
<rect x="112" y="88" width="8" height="8" />
<rect x="120" y="88" width="8" height="8" />
<rect x="128" y="88" width="8" height="8" />
<rect x="144" y="88" width="8" height="8" />
<rect x="152" y="88" width="8" height="8" />
<rect x="184" y="88" width="8" height="8" />
<rect x="200" y="88" width="8" height="8" />
<rect x="216" y="88" width="8" height="8" />
<rect x="224" y="88" width="8" height="8" />
<rect x="232" y="88" width="8" height="8" />
<rect x="240" y="88" width="8" height="8" />
<rect x="248" y="88" width="8" height="8" />
<rect x="256" y="88" width="8" height="8" />
<rect x="32" y="96" width="8" height="8" />
<rect x="56" y="96" width="8" height="8" />
<rect x="64" y="96" width="8" height="8" />
<rect x="72" y="96" width="8" height="8" />
<rect x="80" y="96" width="8" height="8" />
<rect x="88" y="96" width="8" height="8" />
<rect x="96" y="96" width="8" height="8" />
<rect x="112" y="96" width="8" height="8" />
<rect x="128" y="96" width="8" height="8" />
<rect x="144" y="96" width="8" height="8" />
<rect x="152" y="96" width="8" height="8" />
<rect x="160" y="96" width="8" height="8" />
<rect x="176" y="96" width="8" height="8" />
<rect x="192" y="96" width="8" height="8" />
<rect x="200" y="96" width="8" height="8" />
<rect x="224" y="96" width="8" height="8" />
<rect x="232" y="96" width="8" height="8" />
<rect x="240" y="96" width="8" height="8" />
<rect x="256" y="96" width="8" height="8" />
<rect x="264" y="96" width="8" height="8" />
<rect x="288" y="96" width="8" height="8" />
<rect x="304" y="96" width="8" height="8" />
<rect x="312" y="96" width="8" height="8" />
<rect x="320" y="96" width="8" height="8" />
<rect x="32" y="104" width="8" height="8" />
<rect x="88" y="104" width="8" height="8" />
<rect x="96" y="104" width="8" height="8" />
<rect x="104" y="104" width="8" height="8" />
<rect x="128" y="104" width="8" height="8" />
<rect x="136" y="104" width="8" height="8" />
<rect x="144" y="104" width="8" height="8" />
<rect x="192" y="104" width="8" height="8" />
<rect x="208" y="104" width="8" height="8" />
<rect x="248" y="104" width="8" height="8" />
<rect x="264" y="104" width="8" height="8" />
<rect x="288" y="104" width="8" height="8" />
<rect x="296" y="104" width="8" height="8" />
<rect x="304" y="104" width="8" height="8" />
<rect x="312" y="104" width="8" height="8" />
<rect x="40" y="112" width="8" height="8" />
<rect x="48" y="112" width="8" height="8" />
<rect x="56" y="112" width="8" height="8" />
<rect x="64" y="112" width="8" height="8" />
<rect x="72" y="112" width="8" height="8" />
<rect x="80" y="112" width="8" height="8" />
<rect x="104" y="112" width="8" height="8" />
<rect x="112" y="112" width="8" height="8" />
<rect x="128" y="112" width="8" height="8" />
<rect x="136" y="112" width="8" height="8" />
<rect x="176" y="112" width="8" height="8" />
<rect x="200" y="112" width="8" height="8" />
<rect x="208" y="112" width="8" height="8" />
<rect x="224" y="112" width="8" height="8" />
<rect x="232" y="112" width="8" height="8" />
<rect x="240" y="112" width="8" height="8" />
<rect x="248" y="112" width="8" height="8" />
<rect x="272" y="112" width="8" height="8" />
<rect x="280" y="112" width="8" height="8" />
<rect x="288" y="112" width="8" height="8" />
<rect x="304" y="112" width="8" height="8" />
<rect x="320" y="112" width="8" height="8" />
<rect x="40" y="120" width="8" height="8" />
<rect x="64" y="120" width="8" height="8" />
<rect x="72" y="120" width="8" height="8" />
<rect x="96" y="120" width="8" height="8" />
<rect x="112" y="120" width="8" height="8" />
<rect x="136" y="120" width="8" height="8" />
<rect x="144" y="120" width="8" height="8" />
<rect x="152" y="120" width="8" height="8" />
<rect x="168" y="120" width="8" height="8" />
<rect x="208" y="120" width="8" height="8" />
<rect x="248" y="120" width="8" height="8" />
<rect x="256" y="120" width="8" height="8" />
<rect x="264" y="120" width="8" height="8" />
<rect x="272" y="120" width="8" height="8" />
<rect x="288" y="120" width="8" height="8" />
<rect x="296" y="120" width="8" height="8" />
<rect x="304" y="120" width="8" height="8" />
<rect x="312" y="120" width="8" height="8" />
<rect x="320" y="120" width="8" height="8" />
<rect x="40" y="128" width="8" height="8" />
<rect x="56" y="128" width="8" height="8" />
<rect x="64" y="128" width="8" height="8" />
<rect x="80" y="128" width="8" height="8" />
<rect x="96" y="128" width="8" height="8" />
<rect x="104" y="128" width="8" height="8" />
<rect x="112" y="128" width="8" height="8" />
<rect x="144" y="128" width="8" height="8" />
<rect x="160" y="128" width="8" height="8" />
<rect x="176" y="128" width="8" height="8" />
<rect x="184" y="128" width="8" height="8" />
<rect x="208" y="128" width="8" height="8" />
<rect x="224" y="128" width="8" height="8" />
<rect x="248" y="128" width="8" height="8" />
<rect x="256" y="128" width="8" height="8" />
<rect x="264" y="128" width="8" height="8" />
<rect x="272" y="128" width="8" height="8" />
<rect x="296" y="128" width="8" height="8" />
<rect x="304" y="128" width="8" height="8" />
<rect x="320" y="128" width="8" height="8" />
<rect x="40" y="136" width="8" height="8" />
<rect x="48" y="136" width="8" height="8" />
<rect x="64" y="136" width="8" height="8" />
<rect x="72" y="136" width="8" height="8" />
<rect x="96" y="136" width="8" height="8" />
<rect x="112" y="136" width="8" height="8" />
<rect x="120" y="136" width="8" height="8" />
<rect x="128" y="136" width="8" height="8" />
<rect x="144" y="136" width="8" height="8" />
<rect x="152" y="136" width="8" height="8" />
<rect x="160" y="136" width="8" height="8" />
<rect x="168" y="136" width="8" height="8" />
<rect x="192" y="136" width="8" height="8" />
<rect x="208" y="136" width="8" height="8" />
<rect x="216" y="136" width="8" height="8" />
<rect x="232" y="136" width="8" height="8" />
<rect x="240" y="136" width="8" height="8" />
<rect x="248" y="136" width="8" height="8" />
<rect x="256" y="136" width="8" height="8" />
<rect x="288" y="136" width="8" height="8" />
<rect x="296" y="136" width="8" height="8" />
<rect x="312" y="136" width="8" height="8" />
<rect x="40" y="144" width="8" height="8" />
<rect x="72" y="144" width="8" height="8" />
<rect x="80" y="144" width="8" height="8" />
<rect x="104" y="144" width="8" height="8" />
<rect x="112" y="144" width="8" height="8" />
<rect x="144" y="144" width="8" height="8" />
<rect x="152" y="144" width="8" height="8" />
<rect x="168" y="144" width="8" height="8" />
<rect x="184" y="144" width="8" height="8" />
<rect x="200" y="144" width="8" height="8" />
<rect x="208" y="144" width="8" height="8" />
<rect x="232" y="144" width="8" height="8" />
<rect x="240" y="144" width="8" height="8" />
<rect x="248" y="144" width="8" height="8" />
<rect x="272" y="144" width="8" height="8" />
<rect x="288" y="144" width="8" height="8" />
<rect x="296" y="144" width="8" height="8" />
<rect x="304" y="144" width="8" height="8" />
<rect x="312" y="144" width="8" height="8" />
<rect x="320" y="144" width="8" height="8" />
<rect x="32" y="152" width="8" height="8" />
<rect x="40" y="152" width="8" height="8" />
<rect x="64" y="152" width="8" height="8" />
<rect x="72" y="152" width="8" height="8" />
<rect x="88" y="152" width="8" height="8" />
<rect x="112" y="152" width="8" height="8" />
<rect x="120" y="152" width="8" height="8" />
<rect x="128" y="152" width="8" height="8" />
<rect x="136" y="152" width="8" height="8" />
<rect x="168" y="152" width="8" height="8" />
<rect x="176" y="152" width="8" height="8" />
<rect x="216" y="152" width="8" height="8" />
<rect x="248" y="152" width="8" height="8" />
<rect x="256" y="152" width="8" height="8" />
<rect x="272" y="152" width="8" height="8" />
<rect x="280" y="152" width="8" height="8" />
<rect x="296" y="152" width="8" height="8" />
<rect x="304" y="152" width="8" height="8" />
<rect x="320" y="152" width="8" height="8" />
<rect x="32" y="160" width="8" height="8" />
<rect x="40" y="160" width="8" height="8" />
<rect x="48" y="160" width="8" height="8" />
<rect x="56" y="160" width="8" height="8" />
<rect x="80" y="160" width="8" height="8" />
<rect x="96" y="160" width="8" height="8" />
<rect x="104" y="160" width="8" height="8" />
<rect x="120" y="160" width="8" height="8" />
<rect x="128" y="160" width="8" height="8" />
<rect x="136" y="160" width="8" height="8" />
<rect x="144" y="160" width="8" height="8" />
<rect x="152" y="160" width="8" height="8" />
<rect x="160" y="160" width="8" height="8" />
<rect x="168" y="160" width="8" height="8" />
<rect x="192" y="160" width="8" height="8" />
<rect x="200" y="160" width="8" height="8" />
<rect x="216" y="160" width="8" height="8" />
<rect x="224" y="160" width="8" height="8" />
<rect x="232" y="160" width="8" height="8" />
<rect x="240" y="160" width="8" height="8" />
<rect x="248" y="160" width="8" height="8" />
<rect x="272" y="160" width="8" height="8" />
<rect x="288" y="160" width="8" height="8" />
<rect x="304" y="160" width="8" height="8" />
<rect x="312" y="160" width="8" height="8" />
<rect x="40" y="168" width="8" height="8" />
<rect x="64" y="168" width="8" height="8" />
<rect x="72" y="168" width="8" height="8" />
<rect x="104" y="168" width="8" height="8" />
<rect x="128" y="168" width="8" height="8" />
<rect x="136" y="168" width="8" height="8" />
<rect x="160" y="168" width="8" height="8" />
<rect x="168" y="168" width="8" height="8" />
<rect x="176" y="168" width="8" height="8" />
<rect x="192" y="168" width="8" height="8" />
<rect x="200" y="168" width="8" height="8" />
<rect x="216" y="168" width="8" height="8" />
<rect x="224" y="168" width="8" height="8" />
<rect x="232" y="168" width="8" height="8" />
<rect x="240" y="168" width="8" height="8" />
<rect x="248" y="168" width="8" height="8" />
<rect x="264" y="168" width="8" height="8" />
<rect x="280" y="168" width="8" height="8" />
<rect x="296" y="168" width="8" height="8" />
<rect x="40" y="176" width="8" height="8" />
<rect x="48" y="176" width="8" height="8" />
<rect x="56" y="176" width="8" height="8" />
<rect x="80" y="176" width="8" height="8" />
<rect x="96" y="176" width="8" height="8" />
<rect x="120" y="176" width="8" height="8" />
<rect x="144" y="176" width="8" height="8" />
<rect x="152" y="176" width="8" height="8" />
<rect x="168" y="176" width="8" height="8" />
<rect x="176" y="176" width="8" height="8" />
<rect x="192" y="176" width="8" height="8" />
<rect x="216" y="176" width="8" height="8" />
<rect x="232" y="176" width="8" height="8" />
<rect x="240" y="176" width="8" height="8" />
<rect x="248" y="176" width="8" height="8" />
<rect x="288" y="176" width="8" height="8" />
<rect x="304" y="176" width="8" height="8" />
<rect x="320" y="176" width="8" height="8" />
<rect x="40" y="184" width="8" height="8" />
<rect x="56" y="184" width="8" height="8" />
<rect x="104" y="184" width="8" height="8" />
<rect x="208" y="184" width="8" height="8" />
<rect x="232" y="184" width="8" height="8" />
<rect x="248" y="184" width="8" height="8" />
<rect x="288" y="184" width="8" height="8" />
<rect x="296" y="184" width="8" height="8" />
<rect x="320" y="184" width="8" height="8" />
<rect x="40" y="192" width="8" height="8" />
<rect x="56" y="192" width="8" height="8" />
<rect x="80" y="192" width="8" height="8" />
<rect x="88" y="192" width="8" height="8" />
<rect x="96" y="192" width="8" height="8" />
<rect x="104" y="192" width="8" height="8" />
<rect x="112" y="192" width="8" height="8" />
<rect x="144" y="192" width="8" height="8" />
<rect x="152" y="192" width="8" height="8" />
<rect x="192" y="192" width="8" height="8" />
<rect x="216" y="192" width="8" height="8" />
<rect x="240" y="192" width="8" height="8" />
<rect x="264" y="192" width="8" height="8" />
<rect x="272" y="192" width="8" height="8" />
<rect x="280" y="192" width="8" height="8" />
<rect x="288" y="192" width="8" height="8" />
<rect x="296" y="192" width="8" height="8" />
<rect x="304" y="192" width="8" height="8" />
<rect x="32" y="200" width="8" height="8" />
<rect x="48" y="200" width="8" height="8" />
<rect x="56" y="200" width="8" height="8" />
<rect x="64" y="200" width="8" height="8" />
<rect x="72" y="200" width="8" height="8" />
<rect x="88" y="200" width="8" height="8" />
<rect x="104" y="200" width="8" height="8" />
<rect x="112" y="200" width="8" height="8" />
<rect x="136" y="200" width="8" height="8" />
<rect x="144" y="200" width="8" height="8" />
<rect x="152" y="200" width="8" height="8" />
<rect x="184" y="200" width="8" height="8" />
<rect x="200" y="200" width="8" height="8" />
<rect x="216" y="200" width="8" height="8" />
<rect x="232" y="200" width="8" height="8" />
<rect x="240" y="200" width="8" height="8" />
<rect x="288" y="200" width="8" height="8" />
<rect x="304" y="200" width="8" height="8" />
<rect x="312" y="200" width="8" height="8" />
<rect x="40" y="208" width="8" height="8" />
<rect x="64" y="208" width="8" height="8" />
<rect x="80" y="208" width="8" height="8" />
<rect x="96" y="208" width="8" height="8" />
<rect x="112" y="208" width="8" height="8" />
<rect x="120" y="208" width="8" height="8" />
<rect x="128" y="208" width="8" height="8" />
<rect x="144" y="208" width="8" height="8" />
<rect x="152" y="208" width="8" height="8" />
<rect x="168" y="208" width="8" height="8" />
<rect x="176" y="208" width="8" height="8" />
<rect x="192" y="208" width="8" height="8" />
<rect x="208" y="208" width="8" height="8" />
<rect x="216" y="208" width="8" height="8" />
<rect x="240" y="208" width="8" height="8" />
<rect x="248" y="208" width="8" height="8" />
<rect x="256" y="208" width="8" height="8" />
<rect x="264" y="208" width="8" height="8" />
<rect x="280" y="208" width="8" height="8" />
<rect x="296" y="208" width="8" height="8" />
<rect x="312" y="208" width="8" height="8" />
<rect x="320" y="208" width="8" height="8" />
<rect x="48" y="216" width="8" height="8" />
<rect x="64" y="216" width="8" height="8" />
<rect x="72" y="216" width="8" height="8" />
<rect x="104" y="216" width="8" height="8" />
<rect x="128" y="216" width="8" height="8" />
<rect x="168" y="216" width="8" height="8" />
<rect x="184" y="216" width="8" height="8" />
<rect x="200" y="216" width="8" height="8" />
<rect x="208" y="216" width="8" height="8" />
<rect x="216" y="216" width="8" height="8" />
<rect x="224" y="216" width="8" height="8" />
<rect x="248" y="216" width="8" height="8" />
<rect x="272" y="216" width="8" height="8" />
<rect x="280" y="216" width="8" height="8" />
<rect x="288" y="216" width="8" height="8" />
<rect x="296" y="216" width="8" height="8" />
<rect x="304" y="216" width="8" height="8" />
<rect x="312" y="216" width="8" height="8" />
<rect x="32" y="224" width="8" height="8" />
<rect x="64" y="224" width="8" height="8" />
<rect x="72" y="224" width="8" height="8" />
<rect x="80" y="224" width="8" height="8" />
<rect x="104" y="224" width="8" height="8" />
<rect x="144" y="224" width="8" height="8" />
<rect x="160" y="224" width="8" height="8" />
<rect x="168" y="224" width="8" height="8" />
<rect x="176" y="224" width="8" height="8" />
<rect x="184" y="224" width="8" height="8" />
<rect x="200" y="224" width="8" height="8" />
<rect x="216" y="224" width="8" height="8" />
<rect x="224" y="224" width="8" height="8" />
<rect x="256" y="224" width="8" height="8" />
<rect x="272" y="224" width="8" height="8" />
<rect x="320" y="224" width="8" height="8" />
<rect x="32" y="232" width="8" height="8" />
<rect x="40" y="232" width="8" height="8" />
<rect x="48" y="232" width="8" height="8" />
<rect x="112" y="232" width="8" height="8" />
<rect x="120" y="232" width="8" height="8" />
<rect x="160" y="232" width="8" height="8" />
<rect x="168" y="232" width="8" height="8" />
<rect x="184" y="232" width="8" height="8" />
<rect x="192" y="232" width="8" height="8" />
<rect x="216" y="232" width="8" height="8" />
<rect x="224" y="232" width="8" height="8" />
<rect x="232" y="232" width="8" height="8" />
<rect x="248" y="232" width="8" height="8" />
<rect x="256" y="232" width="8" height="8" />
<rect x="288" y="232" width="8" height="8" />
<rect x="296" y="232" width="8" height="8" />
<rect x="32" y="240" width="8" height="8" />
<rect x="40" y="240" width="8" height="8" />
<rect x="64" y="240" width="8" height="8" />
<rect x="72" y="240" width="8" height="8" />
<rect x="80" y="240" width="8" height="8" />
<rect x="88" y="240" width="8" height="8" />
<rect x="104" y="240" width="8" height="8" />
<rect x="112" y="240" width="8" height="8" />
<rect x="120" y="240" width="8" height="8" />
<rect x="144" y="240" width="8" height="8" />
<rect x="160" y="240" width="8" height="8" />
<rect x="168" y="240" width="8" height="8" />
<rect x="184" y="240" width="8" height="8" />
<rect x="192" y="240" width="8" height="8" />
<rect x="208" y="240" width="8" height="8" />
<rect x="224" y="240" width="8" height="8" />
<rect x="240" y="240" width="8" height="8" />
<rect x="248" y="240" width="8" height="8" />
<rect x="264" y="240" width="8" height="8" />
<rect x="288" y="240" width="8" height="8" />
<rect x="296" y="240" width="8" height="8" />
<rect x="304" y="240" width="8" height="8" />
<rect x="312" y="240" width="8" height="8" />
<rect x="320" y="240" width="8" height="8" />
<rect x="32" y="248" width="8" height="8" />
<rect x="48" y="248" width="8" height="8" />
<rect x="72" y="248" width="8" height="8" />
<rect x="104" y="248" width="8" height="8" />
<rect x="144" y="248" width="8" height="8" />
<rect x="152" y="248" width="8" height="8" />
<rect x="192" y="248" width="8" height="8" />
<rect x="216" y="248" width="8" height="8" />
<rect x="256" y="248" width="8" height="8" />
<rect x="264" y="248" width="8" height="8" />
<rect x="272" y="248" width="8" height="8" />
<rect x="280" y="248" width="8" height="8" />
<rect x="296" y="248" width="8" height="8" />
<rect x="304" y="248" width="8" height="8" />
<rect x="312" y="248" width="8" height="8" />
<rect x="320" y="248" width="8" height="8" />
<rect x="32" y="256" width="8" height="8" />
<rect x="56" y="256" width="8" height="8" />
<rect x="80" y="256" width="8" height="8" />
<rect x="96" y="256" width="8" height="8" />
<rect x="120" y="256" width="8" height="8" />
<rect x="144" y="256" width="8" height="8" />
<rect x="208" y="256" width="8" height="8" />
<rect x="216" y="256" width="8" height="8" />
<rect x="224" y="256" width="8" height="8" />
<rect x="232" y="256" width="8" height="8" />
<rect x="248" y="256" width="8" height="8" />
<rect x="256" y="256" width="8" height="8" />
<rect x="264" y="256" width="8" height="8" />
<rect x="272" y="256" width="8" height="8" />
<rect x="280" y="256" width="8" height="8" />
<rect x="288" y="256" width="8" height="8" />
<rect x="296" y="256" width="8" height="8" />
<rect x="312" y="256" width="8" height="8" />
<rect x="320" y="256" width="8" height="8" />
<rect x="96" y="264" width="8" height="8" />
<rect x="104" y="264" width="8" height="8" />
<rect x="136" y="264" width="8" height="8" />
<rect x="152" y="264" width="8" height="8" />
<rect x="176" y="264" width="8" height="8" />
<rect x="184" y="264" width="8" height="8" />
<rect x="192" y="264" width="8" height="8" />
<rect x="232" y="264" width="8" height="8" />
<rect x="256" y="264" width="8" height="8" />
<rect x="288" y="264" width="8" height="8" />
<rect x="304" y="264" width="8" height="8" />
<rect x="320" y="264" width="8" height="8" />
<rect x="32" y="272" width="8" height="8" />
<rect x="40" y="272" width="8" height="8" />
<rect x="48" y="272" width="8" height="8" />
<rect x="56" y="272" width="8" height="8" />
<rect x="64" y="272" width="8" height="8" />
<rect x="72" y="272" width="8" height="8" />
<rect x="80" y="272" width="8" height="8" />
<rect x="96" y="272" width="8" height="8" />
<rect x="112" y="272" width="8" height="8" />
<rect x="120" y="272" width="8" height="8" />
<rect x="136" y="272" width="8" height="8" />
<rect x="152" y="272" width="8" height="8" />
<rect x="184" y="272" width="8" height="8" />
<rect x="200" y="272" width="8" height="8" />
<rect x="208" y="272" width="8" height="8" />
<rect x="216" y="272" width="8" height="8" />
<rect x="224" y="272" width="8" height="8" />
<rect x="240" y="272" width="8" height="8" />
<rect x="256" y="272" width="8" height="8" />
<rect x="272" y="272" width="8" height="8" />
<rect x="288" y="272" width="8" height="8" />
<rect x="320" y="272" width="8" height="8" />
<rect x="32" y="280" width="8" height="8" />
<rect x="80" y="280" width="8" height="8" />
<rect x="96" y="280" width="8" height="8" />
<rect x="104" y="280" width="8" height="8" />
<rect x="120" y="280" width="8" height="8" />
<rect x="128" y="280" width="8" height="8" />
<rect x="136" y="280" width="8" height="8" />
<rect x="144" y="280" width="8" height="8" />
<rect x="152" y="280" width="8" height="8" />
<rect x="160" y="280" width="8" height="8" />
<rect x="168" y="280" width="8" height="8" />
<rect x="176" y="280" width="8" height="8" />
<rect x="184" y="280" width="8" height="8" />
<rect x="192" y="280" width="8" height="8" />
<rect x="208" y="280" width="8" height="8" />
<rect x="232" y="280" width="8" height="8" />
<rect x="240" y="280" width="8" height="8" />
<rect x="256" y="280" width="8" height="8" />
<rect x="288" y="280" width="8" height="8" />
<rect x="312" y="280" width="8" height="8" />
<rect x="320" y="280" width="8" height="8" />
<rect x="32" y="288" width="8" height="8" />
<rect x="48" y="288" width="8" height="8" />
<rect x="56" y="288" width="8" height="8" />
<rect x="64" y="288" width="8" height="8" />
<rect x="80" y="288" width="8" height="8" />
<rect x="96" y="288" width="8" height="8" />
<rect x="104" y="288" width="8" height="8" />
<rect x="112" y="288" width="8" height="8" />
<rect x="136" y="288" width="8" height="8" />
<rect x="144" y="288" width="8" height="8" />
<rect x="152" y="288" width="8" height="8" />
<rect x="184" y="288" width="8" height="8" />
<rect x="200" y="288" width="8" height="8" />
<rect x="208" y="288" width="8" height="8" />
<rect x="216" y="288" width="8" height="8" />
<rect x="240" y="288" width="8" height="8" />
<rect x="248" y="288" width="8" height="8" />
<rect x="256" y="288" width="8" height="8" />
<rect x="264" y="288" width="8" height="8" />
<rect x="272" y="288" width="8" height="8" />
<rect x="280" y="288" width="8" height="8" />
<rect x="288" y="288" width="8" height="8" />
<rect x="320" y="288" width="8" height="8" />
<rect x="32" y="296" width="8" height="8" />
<rect x="48" y="296" width="8" height="8" />
<rect x="56" y="296" width="8" height="8" />
<rect x="64" y="296" width="8" height="8" />
<rect x="80" y="296" width="8" height="8" />
<rect x="96" y="296" width="8" height="8" />
<rect x="104" y="296" width="8" height="8" />
<rect x="112" y="296" width="8" height="8" />
<rect x="128" y="296" width="8" height="8" />
<rect x="136" y="296" width="8" height="8" />
<rect x="160" y="296" width="8" height="8" />
<rect x="176" y="296" width="8" height="8" />
<rect x="216" y="296" width="8" height="8" />
<rect x="224" y="296" width="8" height="8" />
<rect x="240" y="296" width="8" height="8" />
<rect x="248" y="296" width="8" height="8" />
<rect x="256" y="296" width="8" height="8" />
<rect x="264" y="296" width="8" height="8" />
<rect x="272" y="296" width="8" height="8" />
<rect x="296" y="296" width="8" height="8" />
<rect x="304" y="296" width="8" height="8" />
<rect x="320" y="296" width="8" height="8" />
<rect x="32" y="304" width="8" height="8" />
<rect x="48" y="304" width="8" height="8" />
<rect x="56" y="304" width="8" height="8" />
<rect x="64" y="304" width="8" height="8" />
<rect x="80" y="304" width="8" height="8" />
<rect x="112" y="304" width="8" height="8" />
<rect x="144" y="304" width="8" height="8" />
<rect x="152" y="304" width="8" height="8" />
<rect x="160" y="304" width="8" height="8" />
<rect x="176" y="304" width="8" height="8" />
<rect x="184" y="304" width="8" height="8" />
<rect x="192" y="304" width="8" height="8" />
<rect x="200" y="304" width="8" height="8" />
<rect x="208" y="304" width="8" height="8" />
<rect x="216" y="304" width="8" height="8" />
<rect x="224" y="304" width="8" height="8" />
<rect x="232" y="304" width="8" height="8" />
<rect x="240" y="304" width="8" height="8" />
<rect x="264" y="304" width="8" height="8" />
<rect x="288" y="304" width="8" height="8" />
<rect x="320" y="304" width="8" height="8" />
<rect x="32" y="312" width="8" height="8" />
<rect x="80" y="312" width="8" height="8" />
<rect x="112" y="312" width="8" height="8" />
<rect x="120" y="312" width="8" height="8" />
<rect x="160" y="312" width="8" height="8" />
<rect x="168" y="312" width="8" height="8" />
<rect x="176" y="312" width="8" height="8" />
<rect x="184" y="312" width="8" height="8" />
<rect x="192" y="312" width="8" height="8" />
<rect x="208" y="312" width="8" height="8" />
<rect x="216" y="312" width="8" height="8" />
<rect x="240" y="312" width="8" height="8" />
<rect x="256" y="312" width="8" height="8" />
<rect x="264" y="312" width="8" height="8" />
<rect x="272" y="312" width="8" height="8" />
<rect x="288" y="312" width="8" height="8" />
<rect x="296" y="312" width="8" height="8" />
<rect x="304" y="312" width="8" height="8" />
<rect x="312" y="312" width="8" height="8" />
<rect x="320" y="312" width="8" height="8" />
<rect x="32" y="320" width="8" height="8" />
<rect x="40" y="320" width="8" height="8" />
<rect x="48" y="320" width="8" height="8" />
<rect x="56" y="320" width="8" height="8" />
<rect x="64" y="320" width="8" height="8" />
<rect x="72" y="320" width="8" height="8" />
<rect x="80" y="320" width="8" height="8" />
<rect x="96" y="320" width="8" height="8" />
<rect x="112" y="320" width="8" height="8" />
<rect x="136" y="320" width="8" height="8" />
<rect x="144" y="320" width="8" height="8" />
<rect x="152" y="320" width="8" height="8" />
<rect x="168" y="320" width="8" height="8" />
<rect x="192" y="320" width="8" height="8" />
<rect x="224" y="320" width="8" height="8" />
<rect x="256" y="320" width="8" height="8" />
<rect x="272" y="320" width="8" height="8" />
<rect x="280" y="320" width="8" height="8" />
<rect x="304" y="320" width="8" height="8" />
<rect x="320" y="320" width="8" height="8" />
</g>
</svg>